<svg width="879" height="264" viewBox="0 0 879 264" fill="none" xmlns="http://www.w3.org/2000/svg">
<path d="M119.5 2L237 67V197L119.5 262L2 197L2 67L119.5 2Z" stroke="black" stroke-width="4" stroke-linecap="round" stroke-linejoin="round"/>
<path d="M119.5 132V2" stroke="black" stroke-width="4" stroke-linecap="round" stroke-linejoin="round"/>
<path d="M119.5 132L237 66.9995" stroke="black" stroke-width="4" stroke-linecap="round" stroke-linejoin="round"/>
<path d="M119.5 132L237 197" stroke="black" stroke-width="4" stroke-linecap="round" stroke-linejoin="round"/>
<path d="M119.5 132L119.5 262" stroke="black" stroke-width="4" stroke-linecap="round" stroke-linejoin="round"/>
<path d="M119.5 132L2 197" stroke="black" stroke-width="4" stroke-linecap="round" stroke-linejoin="round"/>
<path d="M119.5 132L2 66.9995" stroke="black" stroke-width="4" stroke-linecap="round" stroke-linejoin="round"/>
<path d="M325.23 197V67.4H341.07V117.71H342.87C346.92 110.96 355.74 103.22 373.11 103.22C396.96 103.22 415.14 119.42 415.14 151.19C415.14 182.87 396.96 199.07 373.11 199.07C355.74 199.07 346.65 191.33 342.42 183.95H340.62V197H325.23ZM340.44 151.19C340.44 173.96 352.32 186.56 369.87 186.56C387.33 186.56 399.21 173.96 399.21 151.19C399.21 128.33 387.33 115.73 369.87 115.73C352.32 115.73 340.44 128.33 340.44 151.19ZM435.878 88.64V69.74H452.168V88.64H435.878ZM436.148 197V105.29H451.988V197H436.148ZM472.845 151.19C472.845 121.4 490.035 103.13 517.845 103.13C543.945 103.13 555.375 118.97 557.085 132.56V135.26H542.145C541.065 126.26 534.495 115.46 517.935 115.46C500.115 115.46 488.865 128.42 488.865 151.19C488.865 173.87 500.025 186.83 517.935 186.83C534.765 186.83 541.065 176.57 542.685 166.13H557.535V168.83C555.735 183.14 544.305 199.16 517.845 199.16C489.855 199.16 472.845 180.89 472.845 151.19ZM571.635 151.19C571.635 120.23 590.175 103.13 617.535 103.13C644.895 103.13 663.435 120.23 663.435 151.19C663.435 182.06 644.895 199.16 617.535 199.16C590.175 199.16 571.635 182.06 571.635 151.19ZM587.745 151.19C587.745 174.41 599.715 186.83 617.535 186.83C635.355 186.83 647.325 174.41 647.325 151.19C647.325 127.88 635.355 115.46 617.535 115.46C599.715 115.46 587.745 127.88 587.745 151.19ZM684.351 197V105.29H699.741V118.25H701.541C704.601 112.4 712.341 103.22 731.241 103.22C751.401 103.22 764.721 114.29 764.721 135.35V197H748.881V136.43C748.881 122.03 740.331 115.64 727.461 115.64C712.791 115.64 700.191 125 700.191 144.08V197H684.351ZM784.857 151.1C784.857 119.96 801.867 103.13 828.777 103.13C855.867 103.13 870.537 120.14 870.537 147.14V154.52H800.247C800.607 174.68 811.137 187.19 828.777 187.19C845.517 187.19 852.987 177.11 854.427 168.29H868.557V170.99C866.577 182.24 856.317 199.16 828.867 199.16C801.957 199.16 784.857 182.33 784.857 151.1ZM800.517 143H855.327C855.147 126.26 846.327 115.1 828.687 115.1C811.407 115.1 801.777 126.44 800.517 143Z" fill="black"/>
</svg>
